# xmcd
#
# Track frame offsets:
#	150
#	13625
#	26935
#	42855
#	57817
#	75055
#	91960
#	110050
#	131035
#	144552
#	157842
#	173685
#	188655
#	205885
#	222835
#	240830
#
# Disc length: 3490 seconds
#
# Revision: 1
# Processed by: cddbd v1.5.2PL0 Copyright (c) Steve Scherf et al.
# Submitted via: audiograbber 1.83.01
#
DISCID=c70da010
DTITLE=Various Artist - SC2051
DYEAR=1900
DGENRE=
TTITLE0=Clay Walker - Only on Days That End In "Y"
TTITLE1=Ken Mellons - Stranger In Your Eyes
TTITLE2=Frazier River - Tangled Up In Texas
TTITLE3=Bryan White - Sittin' On Go
TTITLE4=John Michael Montgomery - Heaven Sent Me You
TTITLE5=Rhett Akins - Don't Get Me Started
TTITLE6=Kenny Chesney - Back In My Arms Again
TTITLE7=Steve Azar - I Never Stopped Lovin' You
TTITLE8=Clay Walker - Only on Days That End In "Y" (Vocal)
TTITLE9=Ken Mellons - Stranger In Your Eyes (Vocal)
TTITLE10=Frazier River - Tangled Up In Texas (Vocal)
TTITLE11=Bryan White - Sittin' On Go (Vocal)
TTITLE12=John Michael Montgomery - Heaven Sent Me You (Vocal)
TTITLE13=Rhett Akins - Don't Get Me Started (Vocal)
TTITLE14=Kenny Chesney - Back In My Arms Again (Vocal)
TTITLE15=Steve Azar - I Never Stopped Lovin' You (Vocal)
EXTD=Tracks 9 - 16 Have Demonstration Vocals
EXTT0=
EXTT1=
EXTT2=
EXTT3=
EXTT4=
EXTT5=
EXTT6=
EXTT7=
EXTT8=Demonstration Vocals
EXTT9=Demonstration Vocals
EXTT10=Demonstration Vocals
EXTT11=Demonstration Vocals
EXTT12=Demonstration Vocals
EXTT13=Demonstration Vocals
EXTT14=Demonstration Vocals
EXTT15=Demonstration Vocals
PLAYORDER=
